<mxfile host="Electron" modified="2024-05-18T01:31:33.081Z" agent="Mozilla/5.0 (X11; Linux x86_64) AppleWebKit/537.36 (KHTML, like Gecko) draw.io/24.2.5 Chrome/120.0.6099.109 Electron/28.1.0 Safari/537.36" etag="1b4auOvXnhJaND69t58V" version="24.2.5" type="device">
  <diagram name="Page-1" id="eGmQOpcCQC-GnfnCUIje">
    <mxGraphModel dx="909" dy="669" grid="1" gridSize="10" guides="1" tooltips="1" connect="1" arrows="1" fold="1" page="1" pageScale="1" pageWidth="850" pageHeight="550" math="0" shadow="0">
      <root>
        <mxCell id="0" />
        <mxCell id="1" parent="0" />
        <mxCell id="ffjLgrq28GyszqcOSduw-1" value="" style="endArrow=none;dashed=1;html=1;rounded=0;strokeWidth=5;" parent="1" edge="1">
          <mxGeometry width="50" height="50" relative="1" as="geometry">
            <mxPoint x="330" y="539" as="sourcePoint" />
            <mxPoint x="330" y="12" as="targetPoint" />
          </mxGeometry>
        </mxCell>
        <mxCell id="ffjLgrq28GyszqcOSduw-4" value="&lt;div&gt;DEDICATED LAPTOP&lt;/div&gt;&lt;div&gt;&lt;br&gt;&lt;br&gt;&lt;br&gt;&lt;br&gt;&lt;br&gt;&lt;br&gt;&lt;br&gt;&lt;br&gt;&lt;br&gt;&lt;/div&gt;" style="rounded=0;whiteSpace=wrap;html=1;strokeWidth=3;" parent="1" vertex="1">
          <mxGeometry x="40" y="330" width="250" height="160" as="geometry" />
        </mxCell>
        <mxCell id="ffjLgrq28GyszqcOSduw-5" value="&lt;br&gt;CONNECTED TO THE INTERNET&lt;br&gt;SEMI-PUBLIC&lt;br style=&quot;border-color: var(--border-color);&quot;&gt;NOT SECURED" style="strokeWidth=4;html=1;shape=mxgraph.flowchart.start_1;whiteSpace=wrap;" parent="1" vertex="1">
          <mxGeometry x="55" y="20" width="245" height="70" as="geometry" />
        </mxCell>
        <mxCell id="ffjLgrq28GyszqcOSduw-6" style="edgeStyle=orthogonalEdgeStyle;rounded=0;orthogonalLoop=1;jettySize=auto;html=1;exitX=0;exitY=0;exitDx=15;exitDy=45;exitPerimeter=0;entryX=0.75;entryY=0;entryDx=0;entryDy=0;curved=1;strokeWidth=2;" parent="1" source="ffjLgrq28GyszqcOSduw-7" target="ffjLgrq28GyszqcOSduw-9" edge="1">
          <mxGeometry relative="1" as="geometry" />
        </mxCell>
        <mxCell id="ffjLgrq28GyszqcOSduw-7" value="Passphrase" style="whiteSpace=wrap;html=1;shape=mxgraph.basic.octagon2;align=center;verticalAlign=middle;dx=15;strokeWidth=2;" parent="1" vertex="1">
          <mxGeometry x="730" y="130" width="100" height="60" as="geometry" />
        </mxCell>
        <mxCell id="ffjLgrq28GyszqcOSduw-8" style="edgeStyle=orthogonalEdgeStyle;rounded=0;orthogonalLoop=1;jettySize=auto;html=1;exitX=0;exitY=0.75;exitDx=0;exitDy=0;entryX=1;entryY=0.75;entryDx=0;entryDy=0;curved=1;dashed=1;strokeWidth=2;" parent="1" source="ffjLgrq28GyszqcOSduw-9" target="ffjLgrq28GyszqcOSduw-4" edge="1">
          <mxGeometry relative="1" as="geometry" />
        </mxCell>
        <mxCell id="ffjLgrq28GyszqcOSduw-9" value="OFFLINE SIGNING DEVICE&lt;br&gt;&lt;div&gt;&lt;br&gt;&lt;/div&gt;&lt;div&gt;&lt;br&gt;&lt;/div&gt;&lt;div&gt;&lt;br&gt;&lt;/div&gt;&lt;div&gt;&lt;br&gt;&lt;/div&gt;" style="rounded=0;whiteSpace=wrap;html=1;strokeWidth=2;" parent="1" vertex="1">
          <mxGeometry x="520" y="310" width="170" height="80" as="geometry" />
        </mxCell>
        <mxCell id="ffjLgrq28GyszqcOSduw-10" value="HIGHLY CONFIDENTIAL&lt;div&gt;OFFLINE&lt;br&gt;PROTECTED AND SECURED&lt;/div&gt;" style="strokeWidth=4;html=1;shape=mxgraph.flowchart.start_1;whiteSpace=wrap;" parent="1" vertex="1">
          <mxGeometry x="410" y="20" width="390" height="70" as="geometry" />
        </mxCell>
        <mxCell id="ffjLgrq28GyszqcOSduw-11" value="&lt;div&gt;Wallet Management Interface&lt;br&gt;&lt;br&gt;&lt;br&gt;&lt;br&gt;&lt;br&gt;&lt;br&gt;&lt;/div&gt;" style="rounded=0;whiteSpace=wrap;html=1;strokeWidth=2;" parent="1" vertex="1">
          <mxGeometry x="52.5" y="360" width="225" height="120" as="geometry" />
        </mxCell>
        <mxCell id="ffjLgrq28GyszqcOSduw-12" value="" style="whiteSpace=wrap;html=1;shape=mxgraph.basic.octagon2;align=center;verticalAlign=middle;dx=15;strokeWidth=2;dashed=1;dashPattern=1 2;" parent="1" vertex="1">
          <mxGeometry x="73.75" y="410" width="182.5" height="50" as="geometry" />
        </mxCell>
        <mxCell id="ffjLgrq28GyszqcOSduw-14" value="Signing Key 1" style="shape=hexagon;perimeter=hexagonPerimeter2;whiteSpace=wrap;html=1;fixedSize=1;strokeWidth=2;" parent="1" vertex="1">
          <mxGeometry x="545" y="330" width="120" height="40" as="geometry" />
        </mxCell>
        <mxCell id="ffjLgrq28GyszqcOSduw-15" style="edgeStyle=orthogonalEdgeStyle;rounded=0;orthogonalLoop=1;jettySize=auto;html=1;exitX=0;exitY=0;exitDx=85;exitDy=45;exitPerimeter=0;entryX=0.25;entryY=0;entryDx=0;entryDy=0;curved=1;strokeWidth=2;" parent="1" source="ffjLgrq28GyszqcOSduw-16" target="ffjLgrq28GyszqcOSduw-9" edge="1">
          <mxGeometry relative="1" as="geometry" />
        </mxCell>
        <mxCell id="ffjLgrq28GyszqcOSduw-16" value="Seed 1" style="whiteSpace=wrap;html=1;shape=mxgraph.basic.octagon2;align=center;verticalAlign=middle;dx=15;strokeWidth=2;" parent="1" vertex="1">
          <mxGeometry x="394" y="130" width="100" height="60" as="geometry" />
        </mxCell>
        <mxCell id="ffjLgrq28GyszqcOSduw-19" value="1. Create new multisignature&lt;br&gt;3-of-5 wallet in interface" style="rounded=1;whiteSpace=wrap;html=1;shadow=1;glass=0;" parent="1" vertex="1">
          <mxGeometry x="107.5" y="500" width="170" height="30" as="geometry" />
        </mxCell>
        <mxCell id="ffjLgrq28GyszqcOSduw-20" value="2. Load Seed 1 in signing device and verify fingerprint" style="rounded=1;whiteSpace=wrap;html=1;shadow=1;glass=0;" parent="1" vertex="1">
          <mxGeometry x="375" y="250" width="170" height="30" as="geometry" />
        </mxCell>
        <mxCell id="ffjLgrq28GyszqcOSduw-21" value="3. Load Passphrase in signing device and verify fingerprint" style="rounded=1;whiteSpace=wrap;html=1;shadow=1;glass=0;" parent="1" vertex="1">
          <mxGeometry x="670" y="260" width="170" height="30" as="geometry" />
        </mxCell>
        <mxCell id="ffjLgrq28GyszqcOSduw-22" value="4. Derive Public Key 1 from Signing Key 1 in signing device" style="rounded=1;whiteSpace=wrap;html=1;shadow=1;glass=0;" parent="1" vertex="1">
          <mxGeometry x="630" y="400" width="170" height="30" as="geometry" />
        </mxCell>
        <mxCell id="ffjLgrq28GyszqcOSduw-23" value="6. Scan Public Key 1 with wallet management interface" style="rounded=1;whiteSpace=wrap;html=1;shadow=1;glass=0;" parent="1" vertex="1">
          <mxGeometry x="410" y="410" width="170" height="30" as="geometry" />
        </mxCell>
        <mxCell id="ffjLgrq28GyszqcOSduw-24" value="QR Code" style="whiteSpace=wrap;html=1;aspect=fixed;strokeWidth=2;" parent="1" vertex="1">
          <mxGeometry x="350" y="400" width="30" height="30" as="geometry" />
        </mxCell>
        <mxCell id="ffjLgrq28GyszqcOSduw-25" value="7. Repeat process for all &lt;br&gt;Public Keys" style="rounded=1;whiteSpace=wrap;html=1;shadow=1;glass=0;" parent="1" vertex="1">
          <mxGeometry x="120" y="280" width="170" height="30" as="geometry" />
        </mxCell>
        <mxCell id="ffjLgrq28GyszqcOSduw-26" value="8. Create Wallet&amp;nbsp;" style="rounded=1;whiteSpace=wrap;html=1;shadow=1;glass=0;" parent="1" vertex="1">
          <mxGeometry x="55" y="240" width="170" height="30" as="geometry" />
        </mxCell>
        <mxCell id="ffjLgrq28GyszqcOSduw-30" value="9. Back up Wallet Descriptor" style="rounded=1;whiteSpace=wrap;html=1;shadow=1;glass=0;" parent="1" vertex="1">
          <mxGeometry x="20" y="200" width="170" height="30" as="geometry" />
        </mxCell>
        <mxCell id="z6Pke8HdxAjFbMjMFG8D-1" value="&lt;font style=&quot;font-size: 26px;&quot;&gt;Wallet Regeneration Flowchart&lt;/font&gt;" style="rounded=0;whiteSpace=wrap;html=1;shadow=1;" parent="1" vertex="1">
          <mxGeometry x="394" y="470" width="420" height="60" as="geometry" />
        </mxCell>
      </root>
    </mxGraphModel>
  </diagram>
</mxfile>
